EMG
version=1
nRows=31
nColumns=17
inDegrees=no
endheader
time	EMG01_right_gast_med	EMG02_right_glut_max	EMG03_left_gast_med	EMG04_left_glut_max	EMG05_right_glut_med	EMG06_right_bic_fem	EMG07_right_rect_fem	EMG08_right_vast_lat	EMG09_right_vast_med	EMG10_right_tens_fasc_lat	EMG11_left_glut_med	EMG12_left_bic_fem	EMG13_left_rect_fem	EMG14_left_vast_lat	EMG15_left_vast_med	EMG16_left_tens_fasc_lat
      2.25000000	     -1.86114955	     18.50525093	     73.86875916	     -5.06544876	   -193.18663025	     52.80632782	    -12.70592594	     -3.00816464	    -35.99085617	     10.41743279	     -2.17496490	      1.07133007	    -36.52418900	     -0.01169121	    -17.50232315	    -18.00447845
      2.26000000	      5.65330982	     17.21196175	    -68.92033386	     -5.07198048	   -325.61706543	     16.88319016	    -10.64369678	     -8.48269081	    -39.20288849	     40.21937561	     -7.27829933	     -4.65100813	    -38.83678436	    -13.27038860	     -5.42442131	    -44.15579605
      2.27000000	     12.19976139	    -32.11145782	     10.01160812	    -10.68875980	   -322.56713867	    173.71841431	    -37.49141312	     -9.53938007	    -10.22833729	     63.10042191	      5.59607363	     -1.59761679	    -18.22868347	     -6.57420588	      3.78325343	    -46.28233719
      2.28000000	     17.43190765	     11.39885044	     72.54013824	    -15.62379169	   -169.47735596	      4.56282139	     -7.10887480	     14.19982910	     26.72337914	     91.79109955	     -4.01418591	     -7.36203289	    -22.56709099	     -4.30032444	     11.38092995	    -56.72973633
      2.29000000	     24.15126419	     79.42666626	     34.91027451	     -6.77351093	    -35.61653519	     60.29816055	    -13.30278587	      5.76437950	    143.12857056	     96.55099487	    -13.51940918	      1.87613547	    -37.54939270	     -1.57247269	     10.20397377	    -35.65842438
      2.30000000	     11.27260590	     54.58916092	    -19.93291855	     16.27524376	     39.09650803	     17.54015160	     -9.48962402	      6.11954021	    253.60156250	     43.91595840	      3.99913454	     -6.16256857	      2.35631371	     -6.19717646	     -8.96358967	    -35.97952271
      2.31000000	      7.48208809	     30.94816971	     -5.21824646	     25.10751915	    -15.35935688	    -55.99212265	     -8.63140011	      8.12041569	     17.98674011	    -19.34185219	      0.92035127	     -1.17594695	     19.70948792	     -0.67393714	    -25.00507545	    -52.55845642
      2.32000000	    -39.06248856	    -26.21821404	     -0.32277447	      8.09625149	    363.54623413	      0.11207318	    -20.53431320	     -9.83694172	    -54.15098953	    -66.18033600	    -11.26117229	     -2.93654013	     22.63191032	      6.13644743	    -24.11978149	    -87.57762146
      2.33000000	    -64.14868164	    -22.06510353	     -0.23214531	     -0.21804219	    233.70213318	     -8.54165268	      9.44219208	     -2.86833763	   -101.81058502	    -71.52936554	     -4.36601257	     -3.32278538	     14.60497665	      4.23804951	    -12.33799267	    -69.40676117
      2.34000000	    -27.32433701	    -40.03588104	    -10.88990593	      9.13878536	   -148.40513611	    -86.35246277	     10.98957920	    -45.23361206	    -11.17093563	   -157.56997681	     -0.30005419	     -0.66028786	      4.73120642	    -12.10709000	    -17.32963562	    -76.59288788
      2.35000000	     62.24578094	    -49.42930984	     -6.23151779	     15.92789650	   -138.17602539	   -115.24382019	      2.89305043	    -17.62390137	     -7.98248672	   -150.25132751	     -1.57196093	     -2.22838926	      8.02507210	     -9.69910336	    -30.32821274	    -70.80961609
      2.36000000	     68.53538513	    -11.76350594	    -11.53263092	     14.97290707	   -180.77722168	   -125.98664093	     15.97399998	    -20.34301758	    -75.33152771	     24.45980453	     -8.55612946	     -0.14848542	     11.57838249	    -17.54243469	      7.28651142	    -65.29736328
      2.37000000	    -16.62742805	     67.20294952	     -2.32322621	      4.36115313	    -75.14625549	     11.51600170	     31.16703033	    -15.16925812	   -278.45214844	     21.08123779	     -4.04586840	     -9.72480679	     12.05608368	     -8.70639801	      9.06208134	    -63.08872223
      2.38000000	    -24.35106277	     95.86077881	      7.51602840	    -24.37836838	   -161.37825012	     51.41213989	      5.47456264	     12.27520466	    -57.39231491	    -67.19954681	     -6.76771116	     -4.41021347	     14.68375874	     15.57126331	     21.25915527	    -81.73783112
      2.39000000	    -41.87533188	     35.18265533	     -3.65884781	    -52.17681885	   -168.97921753	     61.03219986	    -20.82358360	     21.18015289	    135.77139282	   -110.88172150	     -8.15546131	     -9.18834591	      6.99385643	     17.57858276	     31.16881561	    -63.93007278
      2.40000000	    -54.47547150	    -26.87863350	     -4.22607851	    -55.73249435	    131.93269348	     43.83578110	    -22.56477165	     28.79379272	    314.54589844	    -71.79107666	      2.04390955	     -6.41475105	      4.26509428	     16.73240471	     55.02891922	     -3.62857699
      2.41000000	     -9.15999603	    -67.81171417	     -7.63954926	    -40.81753540	    334.25689697	     -6.35670614	    -19.19730568	     44.81290436	     12.80028343	    -15.65437317	      0.04073822	     -3.34097767	      2.05651665	     18.52422333	    112.76714325	     26.84116936
      2.42000000	     25.48641205	    -67.28704834	    -11.48505974	    -56.37850571	    243.73970032	    -15.95029163	    -28.56064796	     64.44971466	     81.38182831	     -1.66056967	      5.38617468	     -8.19918251	     -8.87346745	     16.02667427	    142.12532043	     37.67595673
      2.43000000	     31.00697708	    -39.71165848	      8.50249290	    -56.80317688	    171.04493713	    -33.72097015	    -25.35652161	     -7.19328880	     78.14246368	     69.51196289	     17.30345917	     -8.96764469	    -23.01525307	     28.87049484	    114.41432953	      3.27262425
      2.44000000	      9.85253620	    -30.00911331	     13.74814415	    108.10836792	     71.56838989	    -61.60821915	      5.34501266	    -50.34838867	      5.26376915	     79.51552582	     -8.20358658	     -8.39189816	    -14.49877357	     16.55804253	     47.44357681	    -31.73425484
      2.45000000	     29.55930328	      4.85953665	     16.36129379	    258.31527710	     15.08665848	    -56.49493790	     21.78073692	    -43.39913940	   -294.03808594	     76.60497284	      4.21094704	    -12.01882458	    -11.68588638	    -51.07699585	    -17.35108757	    -79.33837128
      2.46000000	     19.94734001	     15.96579647	     17.67453003	    560.54846191	     -0.47327149	    -24.18917847	     36.58012009	    -45.23550797	   -302.70681763	    117.21862030	    -10.02952671	    -12.44871902	     -2.84293842	    -61.65091324	    -67.06437683	   -103.22570801
      2.47000000	     21.08761597	     -7.74645424	      8.07157230	    774.18670654	     67.41329956	     -4.40114307	     28.12978363	    -45.68746948	    -95.37630463	    166.52267456	      5.27951622	     -9.66401100	      2.72889590	    -24.08533859	    -98.83605957	   -101.38190460
      2.48000000	   -116.61224365	    -28.11409950	      2.03002453	    580.35675049	    161.44323730	    -13.57764244	     14.90271091	    -28.49691963	     44.84264374	    202.35340881	     -6.34045506	     -3.88346672	      4.86778784	      7.95938015	    -99.25050354	   -216.70431519
      2.49000000	   -237.53953552	    -14.58411789	      1.37166262	    135.68937683	    108.24947357	    -14.74968815	      0.61464512	     -3.45533967	    102.10636139	     68.00335693	     -3.30831242	     -6.74394560	      3.74241185	      8.79627895	    -84.43257141	   -385.56588745
      2.50000000	    -84.50136566	     37.58856583	     -8.05151844	   -159.25541687	    106.08936310	      2.99942136	    -12.11555862	      6.82912111	    136.22833252	   -120.35052490	     -6.18602514	     -6.23331928	      0.60970277	    -17.53543282	    -49.59017944	   -393.80502319
      2.51000000	    -13.93183327	     71.20896912	    -11.98627090	    -93.72048950	    -56.61538696	    -27.91108322	    -17.69182396	     10.36552811	    112.13357544	   -131.29399109	     -6.52416372	     -5.21950006	      0.81760156	     -1.10879707	     -8.91190147	   -195.26626587
      2.52000000	    -16.49397278	     95.30900574	     -0.43833077	   -254.80918884	     45.37092590	    -22.23722267	    -18.97318077	      4.92170477	     57.62964249	   -113.62918091	     -5.65468884	     -5.27941513	     12.86764336	     -6.51593924	     -5.25101566	    -90.52566528
      2.53000000	     40.39126587	     91.44925690	     -0.37719539	   -462.74462891	    -50.96831131	     55.12308121	    -10.37292480	      6.77123451	     13.63084412	    -12.25976944	     -6.74516392	     -8.20678329	      4.39545536	     -6.57804060	     -4.72462082	     44.31844330
      2.54000000	    318.51419067	     27.07851791	     -2.91970968	   -561.16613770	    -49.05907059	      9.15729332	     -6.29603434	     -4.06536484	    -12.19760609	     22.69277954	     -4.85744667	     -3.23541570	      6.11849213	    -10.48913765	     -4.64368296	    151.44015503
      2.55000000	    219.72442627	    -25.69254684	     -9.12752438	   -507.78201294	     44.97735214	      4.47539568	      1.30920410	     -4.40514088	    -18.96200562	     34.86209106	      5.15811825	     -5.88308287	      6.10828543	    -14.34744549	     11.35199261	    136.83128357
